<svg width="400" height="400" xmlns="http://www.w3.org/2000/svg" xmlns:svg="http://www.w3.org/2000/svg">
 <!-- Created with SVG-edit - http://svg-edit.googlecode.com/ -->

 <g display="inline">
    <path fill="#000" fill-rule="evenodd" stroke="#000" stroke-width="6" d="m158.5,150l42,-130c0,0 49,131 49,131c0,0 135,3 135,3c0,0 -109,80 -109,80c0,0 41,132 41,132c0,0 -93,-64 -93,-64c0,0 0,-73 -2,-74c-2,-1 -32,-7 -34,-5c-2,2 -2,79 -2,79c0,0 -96,66 -96,66c0,0 40,-131 40,-131c0,0 -110,-86 -110,-86c0,0 139,-1 139,-1

M179.0278,185c0,-14.07304 11.39915,-25.4722 25.4722,-25.4722c14.07304,0 25.4722,11.39915 25.4722,25.4722c0,14.07304 -11.39915,25.4722 -25.4722,25.4722c-14.07304,0 -25.4722,-11.39915 -25.4722,-25.4722"/>
  </g>
</svg>