<svg width="750" height="400" xmlns="http://www.w3.org/2000/svg" xmlns:xlink="http://www.w3.org/1999/xlink">
 <!-- Created with SVG-edit - http://svg-edit.googlecode.com/ -->
 <defs>
  <svg id="svg_1" height="157.18086" width="236.10677" xmlns:xlink="http://www.w3.org/1999/xlink">
   <defs>
    <linearGradient id="linearGradient4183">
     <stop stop-color="#ffc0cb" id="stop4185" offset="0"/>
     <stop stop-color="#ffc0cb" stop-opacity="0.49804" offset="0.11504" id="stop4191"/>
     <stop stop-color="#ffc0cb" stop-opacity="0.24706" id="stop4193" offset="0.28734"/>
     <stop stop-color="#ffc0cb" stop-opacity="0" id="stop4187" offset="1"/>
    </linearGradient>
    <linearGradient gradientUnits="userSpaceOnUse" y2="108.04962" x2="237.03638" y1="43.06462" x1="52.08608" id="linearGradient4189" xlink:href="#linearGradient4183"/>
   </defs>
   <metadata id="metadata7">image/svg+xml</metadata>
   <g display="inline" id="layer2">
    <path fill="purple" id="path2222" d="m164.75,156.989c-4.168,-1.161 0.59,-9.32401 5.45399,-9.356c4.69,-0.03099 5.05901,-1.00999 4.64,-12.31099c-0.45299,-12.23401 -0.67499,-12.61201 -11.88499,-20.201c-8.15401,-5.521 -14.533,-12.874 -17.49899,-20.1706c-1.22,-3.003 -2.61101,-5.822 -3.09001,-6.263c-0.478,-0.442 -5.81999,-0.421 -11.87,0.047c-7.088,0.547 -13.135,0.47601 -17,-0.2c-5.951,-1.041 -8.496,-2.1205 -21.9996,-9.3314c-6.81219,-3.63731 -7.202,-3.72041 -14.5004,-3.0915c-4.125,0.3554 -10.0365,1.12019 -13.1366,1.69939c-5.4503,1.0184 -5.6566,1.1736 -6.239,4.6954c-1.5725,9.50809 0.2495,15.1421 4.8971,15.1421c1.3574,0 2.8598,0.844 3.4433,1.934c1.3484,2.5196 1.3407,10.06561 -0.0102,10.06561c-1.2278,0 -5.9546,-4.539 -5.9546,-5.718c0,-0.446 -1.6875,-1.854 -3.75,-3.129l-3.75,-2.3196l-0.2224,-11.5336c-0.1223,-6.3436 0.2114,-12.3445 0.7417,-13.3353c0.5302,-0.99081 2.4303,-2.0947 4.2224,-2.4531c5.8704,-1.1741 12.7583,-3.6528 12.7583,-4.5912c0,-0.5059 -0.4341,-0.9197 -0.9648,-0.9197c-1.3832,0 -2.8008,-3.0025 -4.5029,-9.5375c-1.2178,-4.6754 -1.2773,-6.9124 -0.33051,-12.4337c1.068,-6.2281 0.9913,-7.0458 -1.0236,-10.9115c-1.198,-2.2984 -2.1782,-4.979 -2.1782,-5.957c0,-0.9779 -0.6607,-2.6515 -1.4682,-3.7192c-1.7708,-2.3412 -1.8846,-1.7517 -0.4541,2.3518c0.8234,2.3621 0.697,4.9573 -0.5356,11.0007c-0.9691,4.7512 -1.3514,9.5465 -0.9576,12.0093c0.7516,4.7001 -0.9105,7.1971 -4.7906,7.1971c-4.0448,0 -6.548,-2.6261 -7.7223,-8.1018c-0.6021,-2.8077 -2.9704,-8.7709 -5.2628,-13.2515c-2.2925,-4.4807 -4.4549,-8.7917 -4.8054,-9.58c-0.3505,-0.7883 -2.1821,-1.9535 -4.0703,-2.5892c-2.6418,-0.8895 -3.4331,-1.7116 -3.4331,-3.5667c0,-2.1716 0.3673,-2.3788 3.701,-2.0882l3.7011,0.3226l-0.934,-3.2563c-1.2282,-4.28247 -0.5733,-4.71247 3.0722,-2.0173l3.0156,2.2296l2.5461,-2.0027c1.4003,-1.1016 3.8778,-3.84117 5.5054,-6.08807c3.8595,-5.3278 6.3149,-6.1884 13.8628,-4.8588c4.6396,0.8172 6.4089,0.7787 7.5453,-0.1645c0.8165,-0.6776 1.4776,-0.8394 1.4692,-0.3595c-0.026,1.4777 -1.3951,2.9852 -3.3778,3.7189c-3.7396,1.3839 -0.6098,1.8537 4.378,0.6571c4.87749,-1.1701 5.2592,-1.1064 9.0272,1.5048c2.7904,1.9337 4.799,2.5996 6.9083,2.29c3.755,-0.5512 2.91399,0.955 -1.5828,2.83387c-1.88,0.7855 -3.159,1.8476 -2.8422,2.3603c0.3482,0.5633 1.518,0.5028 2.9568,-0.1528c1.8242,-0.8311 3.4942,-0.7054 7.1422,0.5377c2.619,0.8924 5.807,1.6225 7.0836,1.6225c3.221,0 2.901,1.649 -0.678,3.5c-1.6496,0.8533 -2.9996,1.7436 -2.9996,1.9786c0,0.2349 2.175,0.1695 4.8336,-0.1454c4.443,-0.5262 5.224,-0.2752 9.644,3.0988c2.646,2.0192 5.42001,3.4372 6.166,3.151c2.491,-0.9559 1.39301,0.3463 -1.59499,1.8913c-1.622,0.8392 -3.872,1.5257 -5,1.5257c-2.942,0 -2.57301,1.5568 2.05299,8.6567c4.403,6.7585 9.57401,10.1331 18.898,12.3328c14.85699,3.5051 23.892,5.899 26.71001,7.077c2.78899,1.1658 3.67699,1.1192 6.76799,-0.3547c2.032,-0.9689 4.02501,-2.8793 4.64801,-4.4542c2.32899,-5.8908 3.88599,-7.8405 8.05299,-10.0869c6.004,-3.2368 14.119,-2.6882 17.44499,1.1796c2.369,2.7536 2.53401,3.4296 4.33701,17.7956c1.47701,11.7726 3.55099,18.2292 7.185,22.3682c2.849,3.2448 3.47,3.4858 8.989,3.4858c7.50301,0 12.47501,-2.0171 16.668,-6.7619l3.30301,-3.738l-1.604,4c-1.658,4.1353 -6.505,9.8379 -10.002,11.7679c-1.10001,0.607 -4.25,1.65701 -7,2.333l-5,1.229l6.10899,0.085c4.821,0.067 7.28401,-0.508 11.68501,-2.727c5.00699,-2.526 5.46599,-2.609 4.50499,-0.812c-1.771,3.309 -9.843,11.4876 -13.675,13.8556c-2.87599,1.778 -5.112,2.223 -11.26199,2.243c-7.104,0.023 -7.959,-0.205 -11.51801,-3.072c-2.11499,-1.704 -8.54999,-2.78101 -9.84399,-12.7526c-0.73,-5.621 0,-17.6464 0,-17.6464c0,0 1.77901,-10.1899 -0.62399,-17.5153c-1.873,-5.7085 -8.12701,-8.5643 -12.31601,-2.0152c-1.925,3.0101 -4.356,6.0067 -5.39999,6.6591c-1.84401,1.1513 -1.82701,1.325 0.55499,5.9169c3.45201,6.6533 3.873,14.35519 1.418,25.9509l-2.011,9.4996l2.43901,3.554c1.34099,1.95499 4.01399,5.08099 5.939,6.946c3.957,3.836 4.091,5.02 2.85201,25.266c-0.55901,9.145 -0.89801,10.64301 -2.5,11.062c-1.01901,0.267 -1.85201,1.172 -1.85201,2.011c0,0.84 -0.78799,1.758 -1.75,2.03999c-3.23199,0.95001 -8.735,1.45401 -10.5,0.96201l0,0zm-122.75,-125.4629c0,-1.8021 -0.2335,-1.9287 -1.5473,-0.8383c-1.2359,1.0257 -1.2862,1.4498 -0.25,2.1071c1.7843,1.1319 1.7973,1.1227 1.7973,-1.2688zm74.25,115.1139c-1.238,-0.50999 -2.25,-1.427 -2.25,-2.037c0,-1.73799 5.657,-6.955 7.542,-6.955c2.1,0 12.98901,-6.41299 16.708,-9.84c4.711,-4.342 3.606,-10.09 -3.80701,-19.802c-2.95499,-3.87099 -7.299,-14.83459 -6.28099,-15.8526c0.19,-0.19099 3.037,-0.495 6.325,-0.67599l5.978,-0.329l3.19101,6c4.09399,7.6976 3.75899,6.9296 6.33899,14.4996c3.95001,11.589 4.01801,11.224 -3.095,16.672c-3.467,2.655 -7.89999,6.21599 -9.85199,7.911c-1.95201,1.696 -4.343,3.37199 -5.313,3.72499c-0.97099,0.35201 -2.181,1.73401 -2.689,3.069c-0.50801,1.336 -1.288,2.64601 -1.73501,2.91101c-1.87,1.11 -8.979,1.562 -11.061,0.70399l0,0zm-91.25,-44.054c0,-2.26 2.7665,-11.2566 4.4432,-14.4496c0.5813,-1.1068 3.1596,-5.1651 5.7296,-9.0185c2.5701,-3.85339 4.9533,-8.12289 5.2961,-9.4878c0.5247,-2.0892 2.1577,-3.0172 10.3272,-5.8689c5.3372,-1.8631 10.1766,-3.5643 10.7542,-3.7804c0.5777,-0.2162 1.775,1.1266 2.6606,2.9839l1.6104,3.3768l-9.1607,2.7697c-10.5327,3.1845 -12.568,4.72421 -16.0969,12.1774c-1.6132,3.4071 -3.4546,5.7482 -4.9766,6.32681c-3.2402,1.23199 -3.9892,4.13499 -2.1826,8.459l1.4926,3.572l-3.6807,2.5006c-4.4751,3.041 -6.2164,3.16399 -6.2164,0.439zm-4.7647,-84.2457c-4.095,-1.8273 -2.4765,-5.1569 1.8954,-3.8992c2.1118,0.6074 2.3096,1.0035 1.3996,2.802c-0.8723,1.7241 -1.4551,1.9182 -3.295,1.0972zm-7.4001,-2.4536c-2.8188,-0.596 -3.11482,-3.2382 -0.3628,-3.2382c1.3253,0 2.6314,0.359 2.9026,0.7978c0.8113,1.3127 -0.755,2.8177 -2.5398,2.4404l0,0zm-7.83522,-3.7068c0,-0.8946 0.5863,-1.2436 1.5,-0.893c1.9412,0.7449 1.9412,2.3616 0,2.3616c-0.825,0 -1.5,-0.6609 -1.5,-1.4686zm-5,-1.5c0,-0.5327 0.675,-0.70957 1.5,-0.393c1.9207,0.737 1.9207,1.3616 0,1.3616c-0.825,0 -1.5,-0.4359 -1.5,-0.9686z"/>
   </g>
  </svg>
  <linearGradient y2="1" x2="1" y1="0" x1="0" id="svg_3">
   <stop stop-color="#ff0000" offset="0"/>
   <stop stop-color="#ffff00" offset="1"/>
  </linearGradient>
  <svg id="svg_4" height="400" width="800" viewBox="0 0 40 20">
   <circle stroke="#dd0000" fill="none" r="19" cy="20" cx="20"/>
   <circle stroke="#fe6230" fill="none" r="18" cy="20" cx="20"/>
   <circle stroke="#fef600" fill="none" r="17" cy="20" cx="20"/>
   <circle stroke="#00bc00" fill="none" r="16" cy="20" cx="20"/>
   <circle stroke="#009bfe" fill="none" r="15" cy="20" cx="20"/>
   <circle stroke="#000083" fill="none" r="14" cy="20" cx="20"/>
   <circle stroke="#30009b" fill="none" r="13" cy="20" cx="20"/>
  </svg>
 </defs>
 <g>
  <title>Layer 1</title>
  <use fill="url(#svg_3)" x="230.93954" y="210.54951" transform="matrix(1.0262426401530436,0,0,1.0401354304897836,16.348583128586885,12.55438171259631) " id="svg_2" xlink:href="#svg_1"/>
  <use x="-347.52892" y="-475.64932" transform="matrix(0.9514434404828344,0,0,1.0026244619948643,324.0891857087657,472.11680838230313) " id="svg_5" xlink:href="#svg_4"/>
 </g>
</svg>