<svg width="250" height="200" xmlns="http://www.w3.org/2000/svg" xmlns:xlink="http://www.w3.org/1999/xlink">
 <!-- Created with SVG-edit - http://svg-edit.googlecode.com/ -->
 <defs>
  <svg width="236.10677" height="157.18086" id="svg_1" xmlns:xlink="http://www.w3.org/1999/xlink">
   <defs>
    <linearGradient id="linearGradient4183">
     <stop offset="0" id="stop4185" stop-color="#ffc0cb"/>
     <stop id="stop4191" offset="0.11504" stop-opacity="0.49804" stop-color="#ffc0cb"/>
     <stop offset="0.28734" id="stop4193" stop-opacity="0.24706" stop-color="#ffc0cb"/>
     <stop offset="1" id="stop4187" stop-opacity="0" stop-color="#ffc0cb"/>
    </linearGradient>
    <linearGradient xlink:href="#linearGradient4183" id="linearGradient4189" x1="52.08608" y1="43.06462" x2="237.03638" y2="108.04962" gradientUnits="userSpaceOnUse"/>
   </defs>
   <metadata id="metadata7">image/svg+xml</metadata>
   <g id="layer2" display="inline">
    <path d="m164.750381,156.989426c-4.167999,-1.160995 0.589996,-9.324005 5.453995,-9.356003c4.690002,-0.031006 5.059006,-1.009995 4.639999,-12.311005c-0.453003,-12.233986 -0.675003,-12.611992 -11.884995,-20.200981c-8.154007,-5.521004 -14.533005,-12.874008 -17.499008,-20.171005c-1.220001,-3.002998 -2.610992,-5.821999 -3.089996,-6.263c-0.477997,-0.442001 -5.820007,-0.420998 -11.869995,0.046997c-7.088005,0.547005 -13.135002,0.476006 -17,-0.199997c-5.950996,-1.041 -8.496002,-2.120499 -22,-9.331398c-6.812195,-3.637299 -7.201996,-3.720406 -14.500397,-3.091499c-4.125,0.3554 -10.036499,1.120193 -13.136608,1.699394c-5.450294,1.018402 -5.656601,1.173599 -6.238998,4.695404c-1.572502,9.508102 0.249504,15.142097 4.897102,15.142097c1.357399,0 2.859806,0.844002 3.443302,1.933998c1.348404,2.520004 1.340698,10.066002 -0.010201,10.066002c-1.227798,0 -5.954601,-4.539001 -5.954601,-5.718002c0,-0.445999 -1.6875,-1.853996 -3.75,-3.128998l-3.75,-2.32l-0.222404,-11.5336c-0.122299,-6.343597 0.211403,-12.344498 0.741699,-13.335297c0.530205,-0.990799 2.430305,-2.094704 4.222404,-2.453102c5.870399,-1.174103 12.758305,-3.652802 12.758305,-4.591202c0,-0.505898 -0.434105,-0.919701 -0.964806,-0.919701c-1.383194,0 -2.800797,-3.002495 -4.502899,-9.537498c-1.2178,-4.6754 -1.277302,-6.912399 -0.330498,-12.433701c1.068001,-6.228104 0.991302,-7.045799 -1.023602,-10.911499c-1.197998,-2.298403 -2.1782,-4.979002 -2.1782,-5.957003c0,-0.977898 -0.660706,-2.651501 -1.468201,-3.7192c-1.770798,-2.341198 -1.884598,-1.751698 -0.454102,2.351803c0.823402,2.362099 0.696999,4.957298 -0.535599,11.000696c-0.969101,4.751202 -1.351402,9.546505 -0.957603,12.009304c0.751602,4.700096 -0.9105,7.197098 -4.790596,7.197098c-4.0448,0 -6.548,-2.626102 -7.722301,-8.101799c-0.6021,-2.807701 -2.970402,-8.770901 -5.262798,-13.251503c-2.292503,-4.4807 -4.454903,-8.791697 -4.805401,-9.579996c-0.350502,-0.788303 -2.182102,-1.953503 -4.070299,-2.589203c-2.641802,-0.8895 -3.433098,-1.711597 -3.433098,-3.566698c0,-2.1716 0.367296,-2.378801 3.700996,-2.088202l3.701101,0.322601l-0.934002,-3.2563c-1.228199,-4.282501 -0.573299,-4.7125 3.072201,-2.0173l3.015598,2.229599l2.546101,-2.002699c1.400299,-1.101601 3.8778,-3.841202 5.505402,-6.0881c3.859497,-5.327801 6.314896,-6.1884 13.862801,-4.858801c4.639599,0.817201 6.408901,0.778701 7.5453,-0.164499c0.816505,-0.6776 1.4776,-0.8394 1.4692,-0.3595c-0.026001,1.477699 -1.395096,2.9852 -3.3778,3.7189c-3.739597,1.3839 -0.609795,1.853701 4.378006,0.657101c4.877495,-1.170101 5.259193,-1.106401 9.027199,1.504799c2.790398,1.933701 4.798996,2.5996 6.908295,2.290001c3.755005,-0.551201 2.914001,0.955 -1.582794,2.833899c-1.880005,0.785501 -3.159004,1.847601 -2.842201,2.3603c0.348198,0.563301 1.517998,0.5028 2.956802,-0.1528c1.824196,-0.8311 3.494194,-0.7054 7.142197,0.537701c2.619003,0.892399 5.806999,1.622499 7.084,1.622499c3.221001,0 2.901001,1.649 -0.678001,3.500002c-1.650002,0.853298 -3,1.743599 -3,1.9786c0,0.234898 2.175003,0.169498 4.834,-0.145401c4.443001,-0.526199 5.223999,-0.2752 9.644005,3.098801c2.645996,2.019199 5.419998,3.437199 6.166,3.151001c2.490997,-0.955902 1.39299,0.346298 -1.595001,1.891296c-1.622002,0.839203 -3.872002,1.525703 -5,1.525703c-2.942001,0 -2.573006,1.556795 2.053001,8.656702c4.402992,6.758495 9.573997,10.133095 18.897995,12.332798c14.856995,3.505096 23.891998,5.899002 26.709991,7.077c2.789001,1.165798 3.677002,1.119198 6.768005,-0.354706c2.031998,-0.968891 4.024994,-2.879292 4.647995,-4.454197c2.328995,-5.890797 3.886002,-7.840496 8.053009,-10.086899c6.003998,-3.236801 14.118988,-2.688202 17.444992,1.179604c2.369003,2.753593 2.533997,3.4296 4.337006,17.795597c1.47699,11.772602 3.550995,18.229198 7.184998,22.368198c2.848999,3.244804 3.470001,3.485802 8.988998,3.485802c7.503006,0 12.475006,-2.017097 16.667999,-6.761902l3.302994,-3.737999l-1.603989,4c-1.658005,4.1353 -6.505005,9.837906 -10.001999,11.767899c-1.100006,0.607002 -4.25,1.657005 -7,2.333l-5,1.229004l6.108994,0.084999c4.820999,0.067001 7.283997,-0.508003 11.684998,-2.726997c5.007004,-2.526001 5.466003,-2.609001 4.505005,-0.812004c-1.770996,3.308998 -9.843002,11.487999 -13.675003,13.856003c-2.875992,1.778 -5.112,2.223 -11.261993,2.242996c-7.104004,0.023003 -7.959,-0.204994 -11.518005,-3.071999c-2.115005,-1.703995 -8.550003,-2.780998 -9.843994,-12.752998c-0.730011,-5.621002 0,-17.6464 0,-17.6464c0,0 1.778992,-10.189903 -0.624008,-17.515301c-1.873001,-5.708504 -8.126999,-8.564304 -12.315994,-2.015202c-1.925003,3.010098 -4.356003,6.006702 -5.400009,6.6591c-1.843994,1.151302 -1.826996,1.325001 0.555008,5.916904c3.451996,6.653297 3.873001,14.355202 1.417999,25.950897l-2.011002,9.5l2.438995,3.554001c1.341003,1.955002 4.014008,5.081001 5.939011,6.945999c3.957001,3.835999 4.090988,5.020004 2.85199,25.265999c-0.55899,9.144989 -0.897995,10.64299 -2.5,11.061996c-1.018997,0.266998 -1.85199,1.171997 -1.85199,2.011002c0,0.839996 -0.78801,1.757996 -1.75,2.039993c-3.23201,0.949997 -8.735001,1.45401 -10.5,0.962006l0,0zm-122.750401,-125.463297c0,-1.802101 -0.233501,-1.928699 -1.547302,-0.838299c-1.235901,1.0257 -1.286201,1.449797 -0.25,2.107096c1.784302,1.131901 1.797302,1.122707 1.797302,-1.268797zm74.250408,115.114298c-1.238007,-0.51001 -2.250008,-1.427002 -2.250008,-2.037003c0,-1.738007 5.657005,-6.955002 7.542,-6.955002c2.100006,0 12.988991,-6.412994 16.708,-9.839989c4.710999,-4.341995 3.605988,-10.089996 -3.807007,-19.802002c-2.955002,-3.871002 -7.298988,-14.834999 -6.281006,-15.852997c0.190002,-0.191002 3.037003,-0.495003 6.325012,-0.676003l5.977997,-0.329002l3.190994,6c4.094009,7.697998 3.759003,6.93 6.339005,14.5c3.949997,11.589005 4.018005,11.223999 -3.095001,16.671989c-3.466995,2.654999 -7.899994,6.216003 -9.852005,7.911011c-1.951996,1.695999 -4.343002,3.371994 -5.312988,3.724991c-0.971008,0.352005 -2.181,1.734009 -2.689011,3.069c-0.507996,1.335999 -1.287987,2.645996 -1.734993,2.910995c-1.869995,1.110001 -8.978989,1.562012 -11.060989,0.70401l0,0zm-91.250408,-44.053993c0,-2.260002 2.766499,-11.257004 4.443199,-14.450005c0.581299,-1.106796 3.159599,-5.1651 5.729599,-9.018501c2.570099,-3.853394 4.9533,-8.122894 5.296101,-9.487793c0.5247,-2.089203 2.1577,-3.017204 10.327198,-5.868908c5.337204,-1.863094 10.176598,-3.564301 10.754204,-3.780392c0.577698,-0.216206 1.774994,1.126595 2.660603,2.983894l1.610397,3.376801l-9.160702,2.769699c-10.5327,3.184502 -12.568001,4.724205 -16.096901,12.177399c-1.613201,3.407104 -3.454601,5.748207 -4.976601,6.326805c-3.2402,1.232002 -3.989199,4.135002 -2.182598,8.459l1.492599,3.571999l-3.6807,2.500999c-4.4751,3.041 -6.216398,3.164001 -6.216398,0.439003zm-4.764702,-84.246103c-4.094997,-1.827301 -2.476498,-5.1569 1.895401,-3.8992c2.111799,0.607399 2.309601,1.0035 1.399597,2.802c-0.872299,1.7241 -1.455095,1.9182 -3.294998,1.0972zm-7.4001,-2.453602c-2.8188,-0.595999 -3.114799,-3.238199 -0.362799,-3.238199c1.3253,0 2.631399,0.359001 2.902599,0.7978c0.811299,1.3127 -0.754999,2.817699 -2.539801,2.440399zm-7.835199,-3.706799c0,-0.8946 0.5863,-1.243601 1.5,-0.893c1.9412,0.7449 1.9412,2.361599 0,2.361599c-0.825001,0 -1.5,-0.6609 -1.5,-1.468599zm-5,-1.5c0,-0.5327 0.675,-0.7096 1.5,-0.393c1.9207,0.737 1.9207,1.361599 0,1.361599c-0.825,0 -1.5,-0.4359 -1.5,-0.968599z" id="path2222" fill="blue"/>
   </g>
  </svg>
  <linearGradient id="svg_3" x1="0" y1="0" x2="1" y2="1">
   <stop offset="0" stop-color="#ff0000"/>
   <stop offset="1" stop-color="#ffff00"/>
  </linearGradient>
 </defs>
 <g>
  <title>Layer 1</title>
  <use xlink:href="#svg_1" id="svg_2" transform="matrix(1.0262426401530436,0,0,1.0401354304897836,16.348583128586885,12.55438171259631) " y="8.65272" x="-10.71871" fill="url(#svg_3)"/>
 </g>
</svg>